<svg width="1928" height="1088" viewBox="0 0 1928 1088" fill="none" xmlns="http://www.w3.org/2000/svg">
<g filter="url(#filter0_d_6_3)">
<g clip-path="url(#clip0_6_3)">
<rect x="4" width="1920" height="1080" fill="#5A189A"/>
<rect x="4" y="-20" width="1920" height="1100" fill="#3C096C" fill-opacity="0.8561"/>
<rect x="4" y="-20" width="1920" height="1100" fill="#5A189A" fill-opacity="0.1662"/>
<path d="M146.569 122.466L133.465 178.679L91.3351 139.224L146.569 122.466Z" stroke="#E9ECEF" stroke-opacity="0.6" stroke-width="9"/>
<path d="M868.043 915.024L849.954 992.618L791.8 938.155L868.043 915.024Z" stroke="#E9ECEF" stroke-opacity="0.6" stroke-width="9"/>
<path d="M1836.75 538.176L1824.63 590.18L1785.65 553.679L1836.75 538.176Z" stroke="#E9ECEF" stroke-opacity="0.6" stroke-width="9"/>
<g filter="url(#filter1_i_6_3)">
<rect x="1497.54" y="824.002" width="51" height="51" transform="rotate(-0.5187 1497.54 824.002)" stroke="#E9ECEF" stroke-opacity="0.6" stroke-width="9"/>
</g>
<g filter="url(#filter2_i_6_3)">
<rect x="181.541" y="872.249" width="78.254" height="78.254" transform="rotate(-0.5187 181.541 872.249)" stroke="#E9ECEF" stroke-opacity="0.6" stroke-width="9"/>
</g>
<g filter="url(#filter3_i_6_3)">
<rect x="963" y="230.731" width="80.716" height="80.716" transform="rotate(-0.5187 963 230.731)" stroke="#E9ECEF" stroke-opacity="0.6" stroke-width="9"/>
</g>
<circle cx="1654" cy="97" r="45.5" stroke="#E9ECEF" stroke-opacity="0.6" stroke-width="9"/>
<circle cx="517" cy="620" r="35.5" stroke="#E9ECEF" stroke-opacity="0.6" stroke-width="9"/>
<circle cx="1851" cy="995" r="30.5" stroke="#E9ECEF" stroke-opacity="0.6" stroke-width="9"/>
<path d="M333.112 390.423L328.897 387.734L330.384 385.402L333.15 385.423L333.112 390.423ZM320.657 409.945L324.872 412.635L320.584 419.355L316.401 412.57L320.657 409.945ZM308.503 390.234L308.542 385.234L311.307 385.256L312.759 387.61L308.503 390.234ZM300.593 390.173L296.358 392.83L291.511 385.103L300.632 385.174L300.593 390.173ZM316.57 415.645L320.806 412.988L322.504 415.696L320.759 418.375L316.57 415.645ZM299.813 441.356L299.775 446.356L290.632 446.286L295.624 438.626L299.813 441.356ZM307.793 441.418L312.001 444.118L310.512 446.439L307.755 446.418L307.793 441.418ZM320.568 421.511L316.36 418.811L320.64 412.141L324.817 418.876L320.568 421.511ZM333.035 441.612L332.996 446.612L330.239 446.59L328.786 444.247L333.035 441.612ZM341.015 441.673L345.245 439.008L350.119 446.743L340.977 446.673L341.015 441.673ZM324.656 415.707L320.425 418.372L318.721 415.667L320.461 412.985L324.656 415.707ZM341.022 390.484L341.06 385.484L350.181 385.554L345.216 393.206L341.022 390.484ZM337.327 393.113L324.872 412.635L316.442 407.256L328.897 387.734L337.327 393.113ZM316.401 412.57L304.247 392.858L312.759 387.61L324.913 407.321L316.401 412.57ZM308.465 395.234L300.555 395.173L300.632 385.174L308.542 385.234L308.465 395.234ZM304.829 387.517L320.806 412.988L312.334 418.301L296.358 392.83L304.829 387.517ZM320.759 418.375L304.002 444.086L295.624 438.626L312.381 412.915L320.759 418.375ZM299.852 436.357L307.832 436.418L307.755 446.418L299.775 446.356L299.852 436.357ZM303.585 438.717L316.36 418.811L324.776 424.212L312.001 444.118L303.585 438.717ZM324.817 418.876L337.284 438.976L328.786 444.247L316.319 424.147L324.817 418.876ZM333.073 436.612L341.053 436.673L340.977 446.673L332.996 446.612L333.073 436.612ZM336.785 444.338L320.425 418.372L328.886 413.041L345.245 439.008L336.785 444.338ZM320.461 412.985L336.827 387.762L345.216 393.206L328.85 418.428L320.461 412.985ZM340.983 395.484L333.073 395.423L333.15 385.423L341.06 385.484L340.983 395.484Z" fill="#E9ECEF" fill-opacity="0.6"/>
<path d="M1079.11 685.423L1074.9 682.734L1076.38 680.402L1079.15 680.423L1079.11 685.423ZM1066.66 704.945L1070.87 707.635L1066.58 714.355L1062.4 707.57L1066.66 704.945ZM1054.5 685.234L1054.54 680.234L1057.31 680.256L1058.76 682.61L1054.5 685.234ZM1046.59 685.173L1042.36 687.83L1037.51 680.103L1046.63 680.174L1046.59 685.173ZM1062.57 710.645L1066.81 707.988L1068.5 710.696L1066.76 713.375L1062.57 710.645ZM1045.81 736.356L1045.77 741.356L1036.63 741.286L1041.62 733.626L1045.81 736.356ZM1053.79 736.418L1058 739.118L1056.51 741.439L1053.75 741.418L1053.79 736.418ZM1066.57 716.511L1062.36 713.811L1066.64 707.141L1070.82 713.876L1066.57 716.511ZM1079.03 736.612L1079 741.612L1076.24 741.59L1074.79 739.247L1079.03 736.612ZM1087.02 736.673L1091.25 734.008L1096.12 741.743L1086.98 741.673L1087.02 736.673ZM1070.66 710.707L1066.43 713.372L1064.72 710.667L1066.46 707.985L1070.66 710.707ZM1087.02 685.484L1087.06 680.484L1096.18 680.554L1091.22 688.206L1087.02 685.484ZM1083.33 688.113L1070.87 707.635L1062.44 702.256L1074.9 682.734L1083.33 688.113ZM1062.4 707.57L1050.25 687.858L1058.76 682.61L1070.91 702.321L1062.4 707.57ZM1054.46 690.234L1046.55 690.173L1046.63 680.174L1054.54 680.234L1054.46 690.234ZM1050.83 682.517L1066.81 707.988L1058.33 713.301L1042.36 687.83L1050.83 682.517ZM1066.76 713.375L1050 739.086L1041.62 733.626L1058.38 707.915L1066.76 713.375ZM1045.85 731.357L1053.83 731.418L1053.75 741.418L1045.77 741.356L1045.85 731.357ZM1049.59 733.717L1062.36 713.811L1070.78 719.212L1058 739.118L1049.59 733.717ZM1070.82 713.876L1083.28 733.976L1074.79 739.247L1062.32 719.147L1070.82 713.876ZM1079.07 731.612L1087.05 731.673L1086.98 741.673L1079 741.612L1079.07 731.612ZM1082.78 739.338L1066.43 713.372L1074.89 708.041L1091.25 734.008L1082.78 739.338ZM1066.46 707.985L1082.83 682.762L1091.22 688.206L1074.85 713.428L1066.46 707.985ZM1086.98 690.484L1079.07 690.423L1079.15 680.423L1087.06 680.484L1086.98 690.484Z" fill="#E9ECEF" fill-opacity="0.6"/>
<g filter="url(#filter4_d_6_3)">
<path d="M1383.11 446.423L1378.9 443.734L1380.38 441.402L1383.15 441.423L1383.11 446.423ZM1370.66 465.945L1374.87 468.635L1370.58 475.355L1366.4 468.57L1370.66 465.945ZM1358.5 446.234L1358.54 441.234L1361.31 441.256L1362.76 443.61L1358.5 446.234ZM1350.59 446.173L1346.36 448.83L1341.51 441.103L1350.63 441.174L1350.59 446.173ZM1366.57 471.645L1370.81 468.988L1372.5 471.696L1370.76 474.375L1366.57 471.645ZM1349.81 497.356L1349.77 502.356L1340.63 502.286L1345.62 494.626L1349.81 497.356ZM1357.79 497.418L1362 500.118L1360.51 502.439L1357.75 502.418L1357.79 497.418ZM1370.57 477.511L1366.36 474.811L1370.64 468.141L1374.82 474.876L1370.57 477.511ZM1383.03 497.612L1383 502.612L1380.24 502.59L1378.79 500.247L1383.03 497.612ZM1391.02 497.673L1395.25 495.008L1400.12 502.743L1390.98 502.673L1391.02 497.673ZM1374.66 471.707L1370.43 474.372L1368.72 471.667L1370.46 468.985L1374.66 471.707ZM1391.02 446.484L1391.06 441.484L1400.18 441.554L1395.22 449.206L1391.02 446.484ZM1387.33 449.113L1374.87 468.635L1366.44 463.256L1378.9 443.734L1387.33 449.113ZM1366.4 468.57L1354.25 448.858L1362.76 443.61L1374.91 463.321L1366.4 468.57ZM1358.46 451.234L1350.55 451.173L1350.63 441.174L1358.54 441.234L1358.46 451.234ZM1354.83 443.517L1370.81 468.988L1362.33 474.301L1346.36 448.83L1354.83 443.517ZM1370.76 474.375L1354 500.086L1345.62 494.626L1362.38 468.915L1370.76 474.375ZM1349.85 492.357L1357.83 492.418L1357.75 502.418L1349.77 502.356L1349.85 492.357ZM1353.59 494.717L1366.36 474.811L1374.78 480.212L1362 500.118L1353.59 494.717ZM1374.82 474.876L1387.28 494.976L1378.79 500.247L1366.32 480.147L1374.82 474.876ZM1383.07 492.612L1391.05 492.673L1390.98 502.673L1383 502.612L1383.07 492.612ZM1386.78 500.338L1370.43 474.372L1378.89 469.041L1395.25 495.008L1386.78 500.338ZM1370.46 468.985L1386.83 443.762L1395.22 449.206L1378.85 474.428L1370.46 468.985ZM1390.98 451.484L1383.07 451.423L1383.15 441.423L1391.06 441.484L1390.98 451.484Z" fill="#E9ECEF" fill-opacity="0.6"/>
</g>
</g>
<rect x="4.5" y="0.5" width="1919" height="1079" stroke="black"/>
</g>
<defs>
<filter id="filter0_d_6_3" x="0" y="0" width="1928" height="1088" filterUnits="userSpaceOnUse" color-interpolation-filters="sRGB">
<feFlood flood-opacity="0" result="BackgroundImageFix"/>
<feColorMatrix in="SourceAlpha" type="matrix" values="0 0 0 0 0 0 0 0 0 0 0 0 0 0 0 0 0 0 127 0" result="hardAlpha"/>
<feOffset dy="4"/>
<feGaussianBlur stdDeviation="2"/>
<feComposite in2="hardAlpha" operator="out"/>
<feColorMatrix type="matrix" values="0 0 0 0 0 0 0 0 0 0 0 0 0 0 0 0 0 0 0.25 0"/>
<feBlend mode="normal" in2="BackgroundImageFix" result="effect1_dropShadow_6_3"/>
<feBlend mode="normal" in="SourceGraphic" in2="effect1_dropShadow_6_3" result="shape"/>
</filter>
<filter id="filter1_i_6_3" x="1493" y="819" width="60.5407" height="64.5407" filterUnits="userSpaceOnUse" color-interpolation-filters="sRGB">
<feFlood flood-opacity="0" result="BackgroundImageFix"/>
<feBlend mode="normal" in="SourceGraphic" in2="BackgroundImageFix" result="shape"/>
<feColorMatrix in="SourceAlpha" type="matrix" values="0 0 0 0 0 0 0 0 0 0 0 0 0 0 0 0 0 0 127 0" result="hardAlpha"/>
<feOffset dy="4"/>
<feGaussianBlur stdDeviation="2"/>
<feComposite in2="hardAlpha" operator="arithmetic" k2="-1" k3="1"/>
<feColorMatrix type="matrix" values="0 0 0 0 0 0 0 0 0 0 0 0 0 0 0 0 0 0 0.25 0"/>
<feBlend mode="normal" in2="shape" result="effect1_innerShadow_6_3"/>
</filter>
<filter id="filter2_i_6_3" x="177" y="867" width="88.0403" height="92.0403" filterUnits="userSpaceOnUse" color-interpolation-filters="sRGB">
<feFlood flood-opacity="0" result="BackgroundImageFix"/>
<feBlend mode="normal" in="SourceGraphic" in2="BackgroundImageFix" result="shape"/>
<feColorMatrix in="SourceAlpha" type="matrix" values="0 0 0 0 0 0 0 0 0 0 0 0 0 0 0 0 0 0 127 0" result="hardAlpha"/>
<feOffset dy="4"/>
<feGaussianBlur stdDeviation="2"/>
<feComposite in2="hardAlpha" operator="arithmetic" k2="-1" k3="1"/>
<feColorMatrix type="matrix" values="0 0 0 0 0 0 0 0 0 0 0 0 0 0 0 0 0 0 0.25 0"/>
<feBlend mode="normal" in2="shape" result="effect1_innerShadow_6_3"/>
</filter>
<filter id="filter3_i_6_3" x="958.459" y="225.459" width="90.5245" height="94.5245" filterUnits="userSpaceOnUse" color-interpolation-filters="sRGB">
<feFlood flood-opacity="0" result="BackgroundImageFix"/>
<feBlend mode="normal" in="SourceGraphic" in2="BackgroundImageFix" result="shape"/>
<feColorMatrix in="SourceAlpha" type="matrix" values="0 0 0 0 0 0 0 0 0 0 0 0 0 0 0 0 0 0 127 0" result="hardAlpha"/>
<feOffset dy="4"/>
<feGaussianBlur stdDeviation="2"/>
<feComposite in2="hardAlpha" operator="arithmetic" k2="-1" k3="1"/>
<feColorMatrix type="matrix" values="0 0 0 0 0 0 0 0 0 0 0 0 0 0 0 0 0 0 0.25 0"/>
<feBlend mode="normal" in2="shape" result="effect1_innerShadow_6_3"/>
</filter>
<filter id="filter4_d_6_3" x="1345.81" y="446.17" width="49.5953" height="59.5026" filterUnits="userSpaceOnUse" color-interpolation-filters="sRGB">
<feFlood flood-opacity="0" result="BackgroundImageFix"/>
<feColorMatrix in="SourceAlpha" type="matrix" values="0 0 0 0 0 0 0 0 0 0 0 0 0 0 0 0 0 0 127 0" result="hardAlpha"/>
<feOffset dy="4"/>
<feGaussianBlur stdDeviation="2"/>
<feComposite in2="hardAlpha" operator="out"/>
<feColorMatrix type="matrix" values="0 0 0 0 0 0 0 0 0 0 0 0 0 0 0 0 0 0 0.25 0"/>
<feBlend mode="normal" in2="BackgroundImageFix" result="effect1_dropShadow_6_3"/>
<feBlend mode="normal" in="SourceGraphic" in2="effect1_dropShadow_6_3" result="shape"/>
</filter>
<clipPath id="clip0_6_3">
<rect x="4" width="1920" height="1080" fill="white"/>
</clipPath>
</defs>
</svg>
